<?xml version="1.0" encoding="UTF-8"?>
<svg width="100" height="60" viewBox="0 0 100 60" fill="none" xmlns="http://www.w3.org/2000/svg">
  <rect width="100" height="60" rx="4" fill="#2E77BC"/>
  <path d="M50 20H36V24H50V20Z" fill="white"/>
  <path d="M50 26H36V30H50V26Z" fill="white"/>
  <path d="M38 32H36V40H38V32Z" fill="white"/>
  <path d="M56 32H45V36H56V32Z" fill="white"/>
  <path d="M45 38H56V40H45V38Z" fill="white"/>
  <path d="M63 20H58V40H63V20Z" fill="white"/>
  <path d="M65 31H68L70 28L72 31H75L71 25L75 20H72L70 23L68 20H65L69 25L65 31Z" fill="white"/>
</svg> 