<?xml version="1.0" encoding="UTF-8"?>
<svg width="100" height="60" viewBox="0 0 100 60" fill="none" xmlns="http://www.w3.org/2000/svg">
  <rect width="100" height="60" rx="4" fill="white"/>
  <path d="M42.5 36.5H37L39.972 23.5H45.472L42.5 36.5Z" fill="#1434CB"/>
  <path d="M61.5 23.9C60.438 23.53 58.8 23.1 56.8 23.1C52.1 23.1 48.8 25.55 48.772 29C48.745 31.58 51.145 33.03 52.945 33.86C54.8 34.71 55.386 35.25 55.379 36.02C55.366 37.21 53.9 37.76 52.545 37.76C50.65 37.76 49.65 37.5 48.1 36.89L47.5 36.61L46.845 40.21C48.107 40.71 50.5 41.14 52.986 41.16C58 41.16 61.238 38.74 61.272 35.01C61.3 32.94 59.886 31.38 57.128 30.17C55.45 29.39 54.45 28.84 54.45 28.01C54.45 27.26 55.328 26.47 57.228 26.47C58.838 26.44 60 26.8 60.879 27.18L61.3 27.38L61.938 23.9" fill="#1434CB"/>
  <path d="M67.5 23.5H71.773C72.8 23.53 73.6 23.83 73.9 25.1L76.2 36.5H71L70.5 34.5L65.5 34.5L64.9 36.5H60L64.838 24.62C65.245 23.71 66.079 23.5 67 23.5H67.5ZM68.3 31L69.786 26.86C69.786 26.86 69.4 31 69.2 32.2L66.5 32.2L68.3 31Z" fill="#1434CB"/>
  <path d="M33.5 23.5L28.5 36.5H23.328L20.879 26.1C20.731 25.45 20.6 25.14 20.1 24.79C19.271 24.2 17.9 23.65 16.7 23.32L16.8 23H24.393C25.555 23.04 26.431 23.38 26.724 24.5L28 31.5L31.5 23.5H33.5Z" fill="#1434CB"/>
</svg> 